Coordinates
version=1
nRows=9
nColumns=26
inDegrees=yes

Units are S.I. units (second, meters, Newtons, ...)
If the header above contains a line with 'inDegrees', this indicates whether rotational values are in degrees (yes) or radians (no).

endheader
time	pelvis_tilt	pelvis_list	pelvis_rotation	pelvis_tx	pelvis_ty	pelvis_tz	hip_flexion_r	hip_adduction_r	hip_rotation_r	knee_angle_r	knee_angle_r_beta	hip_flexion_l	hip_adduction_l	hip_rotation_l	knee_angle_l	knee_angle_l_beta	lumbar_extension	lumbar_bending	lumbar_rotation	ankle_angle_r	subtalar_angle_r	mtp_angle_r	ankle_angle_l	subtalar_angle_l	mtp_angle_l
      1.01000000	     -1.44784825	      7.73237345	     -0.22296887	      0.24270999	      0.88471994	     -0.29382000	     26.91784151	    -14.92492270	    -10.31081325	     56.16164511	      0.98020562	      3.06359942	     10.70059444	    -11.48456969	      5.08883040	      0.08881685	     -8.68963055	     -9.80704233	     -4.07687605	     -1.32556062	    -18.32279163	      0.00000000	     11.22838887	      4.11390641	      0.00000000
      1.02000000	     -1.38018705	      7.56485184	     -0.12115149	      0.25090183	      0.88489900	     -0.29453712	     27.40781679	    -14.55731376	    -10.53968355	     54.00234616	      0.94251874	      2.61565796	     10.61702329	    -11.12263607	      5.49116210	      0.09583886	     -8.85251719	     -9.56207215	     -4.12950555	     -0.56559033	    -18.31371710	      0.00000000	     11.65814541	      3.41101773	      0.00000000
      1.03000000	     -1.26605839	      7.35696913	      0.08507050	      0.25907816	      0.88507893	     -0.29536921	     27.67919304	    -14.21863851	    -10.94781602	     51.57739999	      0.90019545	      2.14131197	     10.48702539	    -10.59904661	      5.96391933	      0.10409003	     -9.08498586	     -9.23735308	     -4.42491762	     -0.02868062	    -18.32480625	      0.00000000	     12.04460673	      2.62760150	      0.00000000
      1.04000000	     -1.15797118	      7.21408951	      0.28127953	      0.26728690	      0.88512045	     -0.29619552	     27.88393437	    -13.97416301	    -11.39978097	     48.96496069	      0.85459978	      1.64943523	     10.43445811	    -10.00694507	      6.38876004	      0.11150490	     -9.31336766	     -8.97347556	     -4.78847668	      0.33711830	    -18.40129451	      0.00000000	     12.38723734	      1.80630506	      0.00000000
      1.05000000	     -1.16530852	      7.12233488	      0.38129282	      0.27545626	      0.88482788	     -0.29678445	     28.19729546	    -13.71804886	    -11.72748177	     46.21683066	      0.80663586	      1.29783993	     10.42494565	     -9.53115469	      6.81047202	      0.11886516	     -9.38839857	     -8.79826135	     -4.91661084	      0.66830497	    -18.42801965	      0.00000000	     12.69850702	      0.93879234	      0.00000000
      1.06000000	     -1.18207816	      7.04327921	      0.51226746	      0.28361884	      0.88442061	     -0.29739035	     28.41570399	    -13.50641688	    -12.16936504	     43.27088773	      0.75521946	      0.96028315	     10.43438677	     -9.00894021	      7.23822816	      0.12633091	     -9.46888983	     -8.61042890	     -5.14320539	      0.74815072	    -18.45452497	      0.00000000	     12.98973107	      0.01511856	      0.00000000
      1.07000000	     -1.26818891	      6.99689474	      0.57825756	      0.29179107	      0.88377600	     -0.29777145	     28.65903164	    -13.28051506	    -12.58940044	     40.17783467	      0.70123550	      0.69266433	     10.46441885	     -8.51074961	      7.65720030	      0.13364336	     -9.44635760	     -8.50451990	     -5.27556271	      0.67790396	    -18.43245122	      0.00000000	     13.26475740	     -0.89346605	      0.00000000
      1.08000000	     -1.41147998	      6.96003961	      0.63323947	      0.29993951	      0.88295046	     -0.29809183	     28.88719105	    -13.05253024	    -13.06117426	     36.92531806	      0.64446838	      0.49426073	     10.50629635	     -8.06039213	      8.08069669	      0.14103476	     -9.36430337	     -8.39394292	     -5.37745020	      0.40152677	    -18.30066156	      0.00000000	     13.54712906	     -1.81203781	      0.00000000
      1.09000000	     -1.56170234	      6.95461587	      0.71252829	      0.30795183	      0.88200963	     -0.29826792	     29.05664727	    -12.83179924	    -13.52437912	     33.54973936	      0.58555342	      0.32091691	     10.56184903	     -7.56919785	      8.53163126	      0.14890506	     -9.34221783	     -8.33060356	     -5.55154160	     -0.08383133	    -18.11433998	      0.00000000	     13.82992668	     -2.67892036	      0.00000000
